<svg xmlns="http://www.w3.org/2000/svg" xmlns:xlink="http://www.w3.org/1999/xlink" version="1.1" x="0px" y="0px" viewBox="0 0 100 125" style="enable-background:new 0 0 100 100;" xml:space="preserve"><g><path d="M37.565,70.315v1.426c0,0.454,0.206,0.883,0.559,1.168c0.269,0.217,0.602,0.332,0.941,0.332   c0.106,0,0.213-0.011,0.318-0.034l22.097-4.802c0.623-0.135,1.093-0.65,1.17-1.283c0.69-5.618,3.286-11.011,7.304-15.184   c5.014-5.18,7.775-12.003,7.775-19.213c0-15.802-13.308-28.543-29.267-27.684c-14.527,0.785-26.032,12.812-26.191,27.38   c-0.077,7.274,2.652,14.172,7.682,19.422C34.862,56.972,37.565,63.532,37.565,70.315z M48.625,8.038   C49.091,8.013,49.551,8,50.011,8C63.641,8,74.73,19.092,74.73,32.726c0,6.427-2.461,12.51-6.934,17.129   c-4.216,4.377-7.022,9.967-7.973,15.84l-19.262,4.186c-0.112-7.405-3.1-14.531-8.441-20.111   c-4.485-4.681-6.917-10.831-6.849-17.315C25.414,19.463,35.672,8.738,48.625,8.038z"/><path d="M52.013,14.106c1.651,0.176,3.271,0.573,4.816,1.179c0.18,0.07,0.365,0.104,0.547,0.104c0.599,0,1.165-0.361,1.397-0.953   c0.302-0.771-0.077-1.642-0.849-1.944c-1.794-0.704-3.676-1.165-5.593-1.37c-0.825-0.083-1.563,0.509-1.651,1.333   S51.189,14.019,52.013,14.106z"/><path d="M68.73,32.726c0,0.829,0.671,1.5,1.5,1.5s1.5-0.671,1.5-1.5c0-5.674-2.182-11.047-6.143-15.127   c-0.577-0.594-1.527-0.609-2.121-0.031c-0.594,0.577-0.608,1.526-0.031,2.121C66.849,23.206,68.73,27.835,68.73,32.726z"/><path d="M38.95,80.466c0.105,0,0.212-0.011,0.32-0.035l22.101-4.798c0.81-0.176,1.323-0.975,1.147-1.784s-0.976-1.327-1.784-1.147   L38.633,77.5c-0.81,0.176-1.323,0.975-1.147,1.784C37.638,79.986,38.259,80.466,38.95,80.466z"/><path d="M62.626,81.077c-0.176-0.81-0.974-1.326-1.784-1.147l-22.101,4.798c-0.81,0.176-1.323,0.975-1.147,1.784   c0.152,0.702,0.774,1.182,1.464,1.182c0.105,0,0.212-0.011,0.32-0.035l22.101-4.798C62.288,82.686,62.802,81.887,62.626,81.077z"/><path d="M55.248,87.415C54.903,90.029,52.645,92,49.995,92c-1.414,0-2.747-0.555-3.754-1.562c-0.287-0.287-0.527-0.59-0.712-0.899   c-0.425-0.71-1.348-0.941-2.058-0.515c-0.71,0.426-0.941,1.347-0.515,2.058c0.312,0.52,0.703,1.017,1.163,1.477   c1.573,1.574,3.66,2.44,5.875,2.44c4.15,0,7.688-3.093,8.228-7.194c0.108-0.821-0.47-1.575-1.292-1.683   C56.11,86.014,55.356,86.593,55.248,87.415z"/><path d="M45.016,56.852v8.218c0,0.829,0.671,1.5,1.5,1.5s1.5-0.671,1.5-1.5v-6.895h3.969v5.38c0,0.829,0.671,1.5,1.5,1.5   s1.5-0.671,1.5-1.5v-6.689l3.471-16.357c0.196-0.923-0.181-1.864-0.961-2.396c-0.78-0.533-1.794-0.542-2.582-0.021l-3.288,2.166   c-0.986,0.649-2.26,0.649-3.246,0l-3.288-2.166c-0.789-0.52-1.802-0.512-2.582,0.021c-0.78,0.532-1.157,1.473-0.961,2.396   L45.016,56.852z M46.728,42.763c1.988,1.311,4.559,1.311,6.547,0l1.901-1.252l-2.899,13.664h-4.55l-2.899-13.664L46.728,42.763z"/></g><text x="0" y="115" fill="#000000" font-size="5px" font-weight="bold" font-family="'Helvetica Neue', Helvetica, Arial-Unicode, Arial, Sans-serif">Created by Maxim Kulikov</text><text x="0" y="120" fill="#000000" font-size="5px" font-weight="bold" font-family="'Helvetica Neue', Helvetica, Arial-Unicode, Arial, Sans-serif">from the Noun Project</text></svg>