<svg xmlns="http://www.w3.org/2000/svg" xmlns:xlink="http://www.w3.org/1999/xlink" version="1.1" x="0px" y="0px" viewBox="0 0 100 125" style="enable-background:new 0 0 100 100;" xml:space="preserve"><g><path d="M33.896,60.72c3.833,4.004,5.943,9.124,5.943,14.416v1.084c-0.003,0.119,0.003,0.239,0.029,0.36   c0.004,0.019,0.017,0.034,0.022,0.053c0.033,0.132,0.085,0.255,0.151,0.371c0.015,0.026,0.026,0.054,0.043,0.079   c0.078,0.119,0.175,0.223,0.282,0.315c0.023,0.019,0.044,0.038,0.068,0.056c0.116,0.088,0.243,0.16,0.382,0.212   c0.017,0.006,0.034,0.01,0.051,0.016c0.149,0.05,0.306,0.083,0.473,0.083c0.122,0,0.239-0.019,0.353-0.046l17.467-3.792   c0.016-0.004,0.031-0.011,0.047-0.015c0.049-0.012,0.095-0.029,0.141-0.046c0.048-0.017,0.095-0.034,0.14-0.055   c0.041-0.019,0.078-0.043,0.117-0.066c0.045-0.027,0.09-0.053,0.132-0.084c0.037-0.028,0.071-0.06,0.105-0.091   c0.036-0.032,0.072-0.063,0.105-0.099c0.036-0.039,0.067-0.082,0.099-0.125c0.024-0.033,0.05-0.065,0.072-0.1   c0.03-0.048,0.054-0.099,0.078-0.151c0.017-0.036,0.035-0.072,0.049-0.11c0.019-0.051,0.032-0.104,0.046-0.158   c0.011-0.043,0.023-0.086,0.03-0.13c0.003-0.018,0.01-0.035,0.012-0.053c0.539-4.384,2.564-8.592,5.701-11.848   c4.027-4.161,6.246-9.643,6.246-15.436c0-6.18-2.473-11.925-6.962-16.176c-4.484-4.247-10.365-6.397-16.55-6.063   c-11.671,0.63-20.913,10.292-21.041,21.996C27.663,50.961,29.854,56.503,33.896,60.72z M48.929,26.116   c5.342-0.29,10.443,1.571,14.324,5.246c3.885,3.679,6.024,8.65,6.024,13.998c0,5.01-1.918,9.75-5.404,13.352   c-3.331,3.458-5.547,7.863-6.344,12.499l-14.726,3.197c-0.185-5.806-2.546-11.38-6.74-15.762   c-3.495-3.648-5.392-8.441-5.338-13.497C30.835,35.021,38.831,26.662,48.929,26.116z"/><path d="M58.436,76.721l-17.506,3.8c-0.81,0.176-1.323,0.975-1.147,1.784c0.152,0.702,0.773,1.182,1.465,1.182   c0.104,0,0.212-0.011,0.319-0.035l17.506-3.8c0.81-0.176,1.323-0.975,1.147-1.784C60.044,77.06,59.253,76.543,58.436,76.721z"/><path d="M60.306,83.593c-0.176-0.809-0.967-1.326-1.784-1.147l-17.506,3.801c-0.81,0.176-1.323,0.975-1.147,1.784   c0.152,0.702,0.773,1.182,1.465,1.182c0.104,0,0.212-0.011,0.319-0.035l17.506-3.801C59.968,85.202,60.481,84.403,60.306,83.593z"/><path d="M56.822,89.03c0.108-0.821-0.471-1.575-1.292-1.683c-0.82-0.109-1.574,0.47-1.683,1.292C53.596,90.555,51.939,92,49.996,92   c-1.037,0-2.015-0.407-2.754-1.146c-0.208-0.208-0.382-0.428-0.517-0.652c-0.427-0.711-1.35-0.94-2.058-0.514   c-0.711,0.426-0.941,1.348-0.515,2.058c0.261,0.435,0.586,0.848,0.968,1.23C46.427,94.281,48.158,95,49.996,95   C53.439,95,56.374,92.434,56.822,89.03z"/><path d="M11.92,46.081h9.332c0.828,0,1.5-0.671,1.5-1.5s-0.672-1.5-1.5-1.5H11.92c-0.828,0-1.5,0.671-1.5,1.5   S11.092,46.081,11.92,46.081z"/><path d="M77.248,44.581c0,0.829,0.672,1.5,1.5,1.5h9.332c0.828,0,1.5-0.671,1.5-1.5s-0.672-1.5-1.5-1.5h-9.332   C77.92,43.081,77.248,43.752,77.248,44.581z"/><path d="M50,17.332c0.828,0,1.5-0.671,1.5-1.5V6.5C51.5,5.671,50.828,5,50,5s-1.5,0.671-1.5,1.5v9.332   C48.5,16.661,49.172,17.332,50,17.332z"/><path d="M70.328,25.752c0.384,0,0.768-0.146,1.061-0.439l6.599-6.599c0.586-0.585,0.586-1.536,0-2.121   c-0.586-0.586-1.535-0.586-2.121,0l-6.599,6.599c-0.586,0.585-0.586,1.536,0,2.121C69.561,25.605,69.944,25.752,70.328,25.752z"/><path d="M23.073,73.007c0.384,0,0.768-0.146,1.061-0.439l6.599-6.599c0.586-0.585,0.586-1.536,0-2.121   c-0.586-0.586-1.535-0.586-2.121,0l-6.599,6.599c-0.586,0.585-0.586,1.536,0,2.121C22.306,72.861,22.689,73.007,23.073,73.007z"/><path d="M28.611,25.313c0.293,0.293,0.677,0.439,1.061,0.439s0.768-0.146,1.061-0.439c0.586-0.585,0.586-1.536,0-2.121   l-6.599-6.599c-0.586-0.586-1.535-0.586-2.121,0c-0.586,0.585-0.586,1.536,0,2.121L28.611,25.313z"/><path d="M77.987,70.447l-6.599-6.599c-0.586-0.586-1.535-0.586-2.121,0c-0.586,0.585-0.586,1.536,0,2.121l6.599,6.599   c0.293,0.293,0.677,0.439,1.061,0.439s0.768-0.146,1.061-0.439C78.573,71.982,78.573,71.032,77.987,70.447z"/><path d="M45.74,64.507v6.473c0,0.829,0.672,1.5,1.5,1.5s1.5-0.671,1.5-1.5v-5.15h2.52v3.95c0,0.829,0.672,1.5,1.5,1.5   s1.5-0.671,1.5-1.5v-5.264l2.743-12.926c0.181-0.856-0.169-1.728-0.892-2.221s-1.661-0.5-2.392-0.019l-2.604,1.716   c-0.678,0.445-1.551,0.445-2.229,0l-2.604-1.716c-0.73-0.481-1.67-0.473-2.395,0.021c-0.722,0.494-1.07,1.366-0.889,2.22   L45.74,64.507z M47.236,53.571c1.68,1.107,3.85,1.106,5.529,0l0.871-0.574L51.55,62.83h-3.098l-2.086-9.833L47.236,53.571z"/><path d="M50.009,32.087c1.574,0,3.114,0.274,4.578,0.814c0.171,0.063,0.347,0.093,0.52,0.093c0.61,0,1.184-0.375,1.407-0.981   c0.287-0.777-0.11-1.64-0.888-1.927c-1.798-0.664-3.688-1-5.617-1c-0.828,0-1.5,0.671-1.5,1.5S49.181,32.087,50.009,32.087z"/><path d="M63.006,42.677c0.146,0.709,0.771,1.198,1.467,1.198c0.101,0,0.202-0.01,0.305-0.031c0.812-0.167,1.334-0.96,1.166-1.771   c-0.706-3.432-2.555-6.605-5.204-8.935c-0.621-0.548-1.57-0.485-2.116,0.136c-0.548,0.622-0.486,1.57,0.136,2.117   C60.921,37.292,62.43,39.88,63.006,42.677z"/></g><text x="0" y="115" fill="#000000" font-size="5px" font-weight="bold" font-family="'Helvetica Neue', Helvetica, Arial-Unicode, Arial, Sans-serif">Created by Maxim Kulikov</text><text x="0" y="120" fill="#000000" font-size="5px" font-weight="bold" font-family="'Helvetica Neue', Helvetica, Arial-Unicode, Arial, Sans-serif">from the Noun Project</text></svg>